<?xml  version="1.0" encoding="UTF-8"?>
<!DOCTYPE svg PUBLIC "-//W3C//DTD SVG 1.0//EN" "http://www.w3.org/TR/2001/REC-SVG-20010904/DTD/svg10.dtd" >
<svg xmlns="http://www.w3.org/2000/svg" >
<metadata>
<version>1.0</version>
<id><![CDATA[Proxima N W01 At Cd Reg]]></id>
<vendor>Monotype Imaging Inc.</vendor>
<credits>
<name>Fonts.com WebFonts</name>
<URL>http://webfonts.fonts.com</URL>
<role>Home of the Web fonts</role>
</credits>
<license>
<URL>http://webfonts.fonts.com/Legal</URL>
</license>
<copyright><![CDATA[Copyright (c) Mark Simonson, 2005. All rights reserved.]]></copyright>
<trademark><![CDATA[Proxima Nova is a trademark of Mark Simonson.]]></trademark>
<licensee>
<name></name>
</licensee>
</metadata>
<defs >
<font horiz-adv-x="432" id="b1fabdae-d2e6-4840-920d-6e84abbffac6">
<font-face font-family="" panose-1="2 0 5 6 3 0 0 2 0 4" ascent="741" descent="-259" units-per-em="1000" alphabetic="0">
</font-face>
<missing-glyph horiz-adv-x="0" />

<glyph unicode="&#xA;" />
<glyph unicode="&#xD;" horiz-adv-x="215" />
<glyph unicode=" " horiz-adv-x="215" />
<glyph unicode="!" horiz-adv-x="228" d="M85 185L69 667H159L144 185H85ZM114 -10Q92 -10 77 6T61 44Q61 65 76 81T114 97Q136 97 152 81T168 44Q168 22 152 6T114 -10Z"  />
<glyph unicode="&quot;" horiz-adv-x="340" d="M80 414Q72 471 67 518Q64 538 62 557T58 592T55 619T54 633Q54 651 67 664T99 677Q117 677 130 664T143 633Q143 630 142 619T139 593T135 558T130 518Q124 471 117 414H80ZM223 414Q215 471 210 518Q207 538 205 557T201 592T198 619T197 633Q197 651 209 664T241 677Q260 677 273 664T286 633Q286 630 285 619T282 593T278 558T272 518Q266 471 259 414H223Z"  />
<glyph unicode="#" horiz-adv-x="507" d="M204 0L257 182H165L114 0H55L107 182H19L33 233H122L178 434H90L102 485H193L244 667H303L252 485H342L393 667H452L400 485H488L475 434H386L329 233H420L406 182H314L263 0H204ZM327 434H237L180 233H270L327 434Z"  />
<glyph unicode="$" horiz-adv-x="469" d="M213 -11Q153 -8 108 14T31 72L75 133Q98 105 133 85T213 60V310Q183 324 154 340T102 378T65 430T51 503Q51 537 63 567T96 619T147 656T213 676V768H272V677Q363 668 421 607L380 547Q357 572 330 585T272 604V377Q302 362 331 345T383 305T420 250T434 174Q434 141 424 111T394 55T344 14T272 -9V-100H213V-11ZM353 169Q353 211 330 236T272 281V64Q314 75 333 104T353 169ZM132 507Q132 471 155 448T213 406V604Q177 596 155 571T132 507Z"  />
<glyph unicode="%" horiz-adv-x="650" d="M171 348Q139 348 113 360T69 395T40 447T30 512Q30 547 40 577T68 630T113 664T171 677Q203 677 229 665T273 630T301 578T311 512Q311 477 301 447T273 395T229 361T171 348ZM128 0L478 667H526L175 0H128ZM480 -12Q448 -12 422 0T378 34T349 86T339 151Q339 186 349 216T377 269T422 304T480 317Q511 317 537 305T582 270T611 217T621 151Q621 116 611 86T582 35T537 1T480 -12ZM171 397Q209 397 232 430T255 512Q255 562 232 595T171 628Q133 628 110 595T86 512Q86 464 109 431T171 397ZM480 37Q519 37 542 70T565 151Q565 201 542 234T480 268Q441 268 418 235T395 151Q395 103 418 70T480 37Z"  />
<glyph unicode="&amp;" horiz-adv-x="522" d="M415 0Q403 14 389 31T361 66Q331 31 293 10T205 -12Q170 -12 139 0T86 34T50 90T37 168Q37 206 47 236T73 290T112 333T157 370Q137 410 125 448T113 519Q113 554 123 583T152 633T195 665T251 677Q278 677 301 668T341 642T367 601T377 547Q377 510 365 483T334 433T291 392T241 356Q272 302 300 263Q316 239 330 218T360 177Q380 217 392 257T413 326L474 299Q460 254 443 209T402 123Q425 94 450 65T505 0H415ZM214 48Q246 48 273 66T323 115Q300 144 281 170T249 217Q233 240 218 265T187 316Q155 290 134 256T113 172Q113 112 143 80T214 48ZM184 518Q184 493 192 465T214 408Q254 435 282 466T311 545Q311 583 294 602T253 621Q222 621 203 595T184 518Z"  />
<glyph unicode="&apos;" horiz-adv-x="197" d="M80 414Q72 471 67 518Q64 538 62 557T58 592T55 619T54 633Q54 651 67 664T99 677Q117 677 130 664T143 633Q143 630 142 619T139 593T135 558T130 518Q124 471 117 414H80Z"  />
<glyph unicode="(" horiz-adv-x="229" d="M164 -199Q106 -101 76 10T46 243Q46 364 76 475T164 685L211 658Q191 610 175 563T148 466T131 361T125 243Q125 180 131 126T148 21T175 -77T211 -171L164 -199Z"  />
<glyph unicode=")" horiz-adv-x="229" d="M18 -171Q38 -124 54 -77T81 20T98 125T104 243Q104 306 98 361T81 466T54 563T18 658L65 685Q122 587 152 476T183 243Q183 122 153 11T65 -199L18 -171Z"  />
<glyph unicode="*" horiz-adv-x="322" d="M139 391L144 506L48 443L26 481L128 534L26 586L48 624L144 562L139 677H183L177 562L274 624L296 586L194 534L296 481L274 443L177 506L183 391H139Z"  />
<glyph unicode="+" horiz-adv-x="438" d="M247 312V128H192V312H29V363H192V540H247V363H409V312H247Z"  />
<glyph unicode="&#x2c;" horiz-adv-x="229" d="M173 22Q173 -23 150 -62T93 -126L57 -97Q81 -80 99 -54T121 -4Q119 -4 116 -4T108 -5Q88 -5 75 9T61 44Q61 66 75 81T113 97Q137 97 155 78T173 22Z"  />
<glyph unicode="-" horiz-adv-x="268" d="M30 210V274H238V210H30Z"  />
<glyph unicode="." horiz-adv-x="229" d="M114 -10Q92 -10 77 6T61 44Q61 65 76 81T114 97Q136 97 152 81T168 44Q168 22 152 6T114 -10Z"  />
<glyph unicode="/" horiz-adv-x="248" d="M0 -20L192 687H248L56 -20H0Z"  />
<glyph unicode="0" horiz-adv-x="514" d="M257 -12Q198 -12 158 19T94 100T58 211T47 333Q47 393 58 454T93 565T158 646T257 677Q315 677 355 646T420 566T456 455T467 333Q467 273 456 212T421 101T356 20T257 -12ZM257 59Q295 59 320 83T359 147T379 235T385 333Q385 382 380 431T360 519T321 582T257 606Q218 606 194 582T155 519T135 431T129 333Q129 284 134 235T154 147T193 84T257 59Z"  />
<glyph unicode="1" horiz-adv-x="315" d="M166 0V562L63 452L15 502L175 667H245V0H166Z"  />
<glyph unicode="2" horiz-adv-x="491" d="M52 0V65Q134 158 190 223T282 336T332 420T348 494Q348 521 339 542T315 577T280 598T239 606Q192 606 157 584T98 522L45 570Q79 621 127 649T240 677Q279 677 313 665T372 630T413 572T428 495Q428 453 412 411T363 320T281 210T165 71H431V0H52Z"  />
<glyph unicode="3" horiz-adv-x="474" d="M227 -12Q156 -12 106 20T29 99L82 146Q105 108 141 84T225 59Q286 59 316 93T347 186Q347 220 337 243T308 280T267 301T218 307Q203 307 188 307T166 306V379Q173 378 188 378T217 378Q242 378 264 384T302 405T328 439T338 489Q338 548 306 577T223 606Q178 606 146 585T87 527L37 572Q67 620 116 648T228 677Q268 677 303 666T363 633T402 578T417 500Q417 469 407 443T380 397T342 364T298 345Q320 342 342 329T383 295T414 245T426 180Q426 138 413 103T375 43T312 3T227 -12Z"  />
<glyph unicode="4" horiz-adv-x="463" d="M287 0V171H23V240L265 667H366V241H440V171H366V0H287ZM287 580L96 241H287V580Z"  />
<glyph unicode="5" horiz-adv-x="493" d="M249 -12Q175 -12 129 17T52 97L105 145Q130 103 163 81T246 59Q274 59 296 70T334 102T358 148T367 205Q367 276 336 313T251 351Q216 351 188 337T130 288L71 309V667H412V596H150V363Q170 387 202 404T274 421Q310 421 341 407T397 366T434 298T448 206Q448 159 433 119T392 50T329 5T249 -12Z"  />
<glyph unicode="6" horiz-adv-x="493" d="M259 -12Q199 -12 159 17T93 94T58 204T47 333Q47 400 59 462T99 572T170 648T273 677Q326 677 365 655T429 594L385 538Q365 570 340 588T274 606Q234 606 206 582T161 520T136 435T128 340V319Q137 337 151 354T185 386T227 409T276 418Q312 418 344 405T400 365T437 298T451 205Q451 163 439 124T402 54T341 6T259 -12ZM255 59Q285 59 306 72T342 105T363 151T370 203Q370 242 361 270T337 315T300 341T255 349Q234 349 216 341T181 318T152 286T129 247Q131 219 137 186T158 125T196 78T255 59Z"  />
<glyph unicode="7" horiz-adv-x="424" d="M99 0L309 596H26V667H399V612L184 0H99Z"  />
<glyph unicode="8" horiz-adv-x="487" d="M244 -12Q200 -12 163 0T100 35T60 91T45 165Q45 198 56 226T87 278T130 318T178 344Q155 352 133 366T94 401T66 448T55 507Q55 550 71 582T113 635T174 666T244 677Q280 677 314 667T374 635T417 582T433 507Q433 475 422 449T394 402T354 367T309 344Q334 335 357 318T400 278T430 227T442 165Q442 124 428 91T387 35T325 0T244 -12ZM244 374Q254 376 272 384T308 406T339 443T353 496Q353 547 323 576T244 606Q195 606 165 577T135 496Q135 465 148 443T180 407T216 384T244 374ZM244 59Q268 59 289 66T326 89T352 125T362 174Q362 207 348 232T314 274T274 300T244 311Q233 309 214 300T175 274T141 232T126 174Q126 119 160 89T244 59Z"  />
<glyph unicode="9" horiz-adv-x="493" d="M220 -11Q167 -11 129 11T65 72L109 128Q128 96 153 78T220 60Q260 60 288 84T333 146T358 231T366 326Q366 333 366 336T365 347Q356 329 342 312T309 280T267 257T218 248Q182 248 150 261T94 301T56 368T42 461Q42 503 54 542T92 612T152 660T235 678Q295 678 335 649T400 572T435 462T446 333Q446 266 434 204T394 94T324 18T220 -11ZM238 317Q259 317 277 325T312 348T341 380T364 419Q362 447 356 480T335 541T298 588T239 607Q209 607 187 594T151 561T130 515T123 463Q123 424 132 396T157 351T193 325T238 317Z"  />
<glyph unicode=":" horiz-adv-x="226" d="M114 384Q92 384 77 399T61 436Q61 459 76 474T114 490Q136 490 152 475T168 436Q168 415 152 400T114 384ZM114 -10Q92 -10 77 6T61 44Q61 65 76 81T114 97Q136 97 152 81T168 44Q168 22 152 6T114 -10Z"  />
<glyph unicode=";" horiz-adv-x="228" d="M114 384Q92 384 77 399T61 437Q61 459 76 474T114 490Q136 490 152 475T168 437Q168 415 152 400T114 384ZM173 24Q173 -22 150 -61T93 -124L57 -95Q81 -79 99 -53T121 -2Q119 -2 116 -3T108 -4Q88 -4 75 10T61 46Q61 67 75 82T113 98Q137 98 155 79T173 24Z"  />
<glyph unicode="&lt;" horiz-adv-x="438" d="M29 309V360L409 544V484L91 334L409 186V125L29 309Z"  />
<glyph unicode="=" horiz-adv-x="438" d="M29 405V456H409V405H29ZM29 212V263H409V212H29Z"  />
<glyph unicode="&gt;" horiz-adv-x="438" d="M29 125V186L347 334L29 484V544L409 360V309L29 125Z"  />
<glyph unicode="?" horiz-adv-x="388" d="M169 184Q136 217 136 267Q136 298 146 321T173 362T208 397T243 431T269 469T280 517Q280 534 274 550T255 579T225 599T183 607Q144 607 118 592T69 549L28 601Q58 637 100 657T194 677Q232 677 263 666T315 634T348 587T360 529Q360 494 349 468T320 420T283 380T246 344T218 307T206 262Q206 248 212 234T229 211L169 184ZM192 -10Q170 -10 154 6T138 44Q138 65 154 81T192 97Q214 97 229 81T245 44Q245 22 230 6T192 -10Z"  />
<glyph unicode="@" horiz-adv-x="693" d="M308 -70Q248 -70 198 -48T111 13T55 108T35 230Q35 311 64 385T144 515T261 604T399 638Q457 638 504 618T586 560T638 471T657 357Q657 295 643 245T607 160T556 105T497 85Q459 85 438 107T414 161L413 167Q391 134 357 110T279 85Q228 85 193 120T157 228Q157 280 173 328T218 415T285 476T367 499Q406 499 431 477T467 424L479 483H544L486 209Q485 204 485 198T484 187Q484 161 494 149T522 137Q535 137 552 150T584 190T611 258T622 357Q622 414 606 459T560 537T489 587T397 604Q331 604 272 573T167 489T96 370T70 231Q70 172 87 123T137 39T213 -17T312 -37Q360 -37 399 -22T474 19L491 -7Q449 -37 404 -53T308 -70ZM302 139Q323 139 341 147T374 167T401 194T423 224L455 374Q452 386 446 398T430 421T407 438T377 445Q343 445 316 425T268 375T237 307T226 234Q226 191 245 165T302 139Z"  />
<glyph unicode="A" horiz-adv-x="512" d="M418 0L375 151H137L94 0H8L209 667H304L504 0H418ZM256 579L154 222H358L256 579Z"  />
<glyph unicode="B" horiz-adv-x="517" d="M70 0V667H292Q371 667 414 620T457 497Q457 434 428 395T355 344Q379 340 400 326T436 289T459 238T468 180Q468 99 426 50T298 0H70ZM277 377Q328 377 351 408T375 486Q375 533 352 564T277 596H150V377H277ZM281 71Q334 71 360 102T386 188Q386 212 380 233T361 270T328 296T281 306H150V71H281Z"  />
<glyph unicode="C" horiz-adv-x="534" d="M307 -12Q247 -12 199 14T117 85T65 194T47 333Q47 408 65 471T117 580T199 652T307 678Q345 678 375 668T429 639T471 598T503 548L437 516Q417 558 385 582T307 607Q266 607 233 587T177 530T142 443T129 333Q129 274 141 224T177 137T233 80T307 59Q353 59 386 87T438 158L504 127Q490 99 472 74T430 30T376 0T307 -12Z"  />
<glyph unicode="D" horiz-adv-x="565" d="M70 0V667H248Q313 667 363 642T448 571T500 465T518 333Q518 261 501 200T449 95T364 25T248 0H70ZM248 71Q294 71 329 91T388 146T423 229T435 333Q435 390 424 438T389 521T330 576T248 596H150V71H248Z"  />
<glyph unicode="E" horiz-adv-x="462" d="M70 0V667H413V596H150V377H406V306H150V71H413V0H70Z"  />
<glyph unicode="F" horiz-adv-x="451" d="M70 0V667H413V596H150V377H406V306H150V0H70Z"  />
<glyph unicode="G" horiz-adv-x="564" d="M303 -12Q246 -12 199 13T118 83T66 192T47 333Q47 410 65 473T118 582T200 653T307 678Q344 678 374 669T428 642T472 602T506 552L442 519Q420 558 387 582T307 607Q267 607 234 587T178 531T142 445T129 333Q129 272 142 222T178 135T234 79T307 59Q345 59 373 76T420 123T449 191T463 271H272V341H544Q544 260 530 195T485 83T410 13T303 -12Z"  />
<glyph unicode="H" horiz-adv-x="575" d="M426 0V308H150V0H70V667H150V378H426V667H505V0H426Z"  />
<glyph unicode="I" horiz-adv-x="220" d="M70 0V667H150V0H70Z"  />
<glyph unicode="J" horiz-adv-x="399" d="M149 -12Q107 -12 73 2T9 49L45 111Q63 88 87 74T143 59Q193 59 221 89T249 174V667H329V172Q329 125 316 90T278 33T221 -1T149 -12Z"  />
<glyph unicode="K" horiz-adv-x="510" d="M401 0L206 294L150 213V0H70V667H150V321L383 667H478L254 351L496 0H401Z"  />
<glyph unicode="L" horiz-adv-x="414" d="M64 0V667H144V71H386V0H64Z"  />
<glyph unicode="M" horiz-adv-x="684" d="M535 0V540L358 0H327L150 540V0H70V667H181L342 176L505 667H614V0H535Z"  />
<glyph unicode="N" horiz-adv-x="573" d="M427 0L150 508V0H70V667H150L424 169V667H503V0H427Z"  />
<glyph unicode="O" horiz-adv-x="601" d="M300 -12Q239 -12 192 15T113 88T64 198T47 333Q47 405 63 468T112 577T192 651T300 678Q361 678 408 651T488 578T537 468T554 333Q554 261 537 198T488 89T409 15T300 -12ZM300 59Q342 59 374 80T427 139T460 226T472 333Q472 391 461 441T428 528T374 586T300 607Q258 607 227 586T173 528T140 441T129 333Q129 276 140 226T173 139T226 81T300 59Z"  />
<glyph unicode="P" horiz-adv-x="488" d="M70 0V667H273Q319 667 353 651T411 608T446 544T458 467Q458 426 446 390T411 327T354 283T273 267H150V0H70ZM265 338Q317 338 346 374T376 467Q376 524 347 560T265 596H150V338H265Z"  />
<glyph unicode="Q" horiz-adv-x="601" d="M300 -12Q239 -12 192 15T113 88T64 198T47 333Q47 405 63 468T112 577T192 651T300 678Q361 678 408 651T488 578T537 468T554 333Q554 248 532 179T467 61L505 3L449 -33L415 19Q364 -12 300 -12ZM300 59Q341 59 374 81L295 204L353 239L422 131Q447 169 459 221T472 333Q472 391 461 441T428 528T374 586T300 607Q258 607 227 586T173 528T140 441T129 333Q129 276 140 226T173 139T226 81T300 59Z"  />
<glyph unicode="R" horiz-adv-x="510" d="M375 0L246 267H150V0H70V667H274Q314 667 348 653T406 613T444 551T458 468Q458 423 447 390T416 334T374 297T325 279L465 0H375ZM265 337Q317 337 346 373T376 467Q376 524 347 560T265 596H150V337H265Z"  />
<glyph unicode="S" horiz-adv-x="472" d="M229 -12Q163 -12 114 11T29 72L73 133Q99 102 139 81T229 59Q260 59 283 68T321 92T343 128T351 169Q351 209 329 235T273 280T200 316T128 356T72 414T49 503Q49 541 63 573T103 628T164 665T241 678Q353 678 419 607L378 547Q350 578 315 592T239 607Q192 607 161 580T130 507Q130 472 152 449T208 408T281 371T353 328T409 267T432 174Q432 137 420 104T383 45T320 4T229 -12Z"  />
<glyph unicode="T" horiz-adv-x="447" d="M184 0V596H25V667H422V596H263V0H184Z"  />
<glyph unicode="U" horiz-adv-x="569" d="M285 -12Q184 -12 127 46T70 216V667H150V216Q150 138 185 99T285 59Q349 59 384 98T419 216V667H499V216Q499 105 443 47T285 -12Z"  />
<glyph unicode="V" horiz-adv-x="512" d="M209 0L8 667H94L256 96L418 667H504L304 0H209Z"  />
<glyph unicode="W" horiz-adv-x="717" d="M467 0L358 526L249 0H165L16 667H101L211 124L325 667H392L506 124L616 667H701L552 0H467Z"  />
<glyph unicode="X" horiz-adv-x="512" d="M412 0L256 276L100 0H8L208 341L19 667H112L256 405L400 667H493L304 341L504 0H412Z"  />
<glyph unicode="Y" horiz-adv-x="501" d="M211 0V282L5 667H94L251 359L408 667H496L290 282V0H211Z"  />
<glyph unicode="Z" horiz-adv-x="463" d="M40 0V68L321 596H40V667H416V601L134 71H423V0H40Z"  />
<glyph unicode="[" horiz-adv-x="212" d="M37 -190V678H195V625H93V-137H195V-190H37Z"  />
<glyph unicode="\" horiz-adv-x="248" d="M0 687H57L249 -20H192L0 687Z"  />
<glyph unicode="]" horiz-adv-x="212" d="M17 -190V-137H119V625H17V678H175V-190H17Z"  />
<glyph unicode="^" horiz-adv-x="381" d="M304 333L190 610L77 333H19L163 667H218L362 333H304Z"  />
<glyph unicode="_" horiz-adv-x="422" d="M-3 -93V-40H425V-93H-3Z"  />
<glyph unicode="`" horiz-adv-x="186" d="M135 556L0 700H73L186 556H135Z"  />
<glyph unicode="a" horiz-adv-x="481" d="M343 0V69Q322 32 288 10T216 -12Q175 -12 143 6T89 57T54 137T42 241Q42 298 54 344T88 424T143 476T216 495Q254 495 287 475T343 413V483H415V0H343ZM234 52Q269 52 299 75T343 130V351Q329 383 299 407T234 431Q204 431 182 416T146 376T124 315T117 241Q117 202 124 168T145 108T182 67T234 52Z"  />
<glyph unicode="b" horiz-adv-x="481" d="M137 130Q151 98 181 75T247 52Q277 52 298 67T334 107T356 167T363 241Q363 280 356 315T335 375T299 416T247 431Q212 431 182 407T137 351V130ZM66 0V667H137V413Q160 454 193 474T265 495Q306 495 338 477T392 425T426 345T438 241Q438 184 427 138T393 58T338 6T265 -12Q227 -12 193 10T137 69V0H66Z"  />
<glyph unicode="c" horiz-adv-x="407" d="M243 -12Q196 -12 159 7T96 61T56 142T42 242Q42 296 56 342T96 422T159 475T243 495Q294 495 326 477T381 431L342 382Q322 408 300 419T249 431Q217 431 192 416T151 375T126 315T117 242Q117 203 125 169T150 108T192 67T249 52Q305 52 342 101L381 52Q358 23 326 6T243 -12Z"  />
<glyph unicode="d" horiz-adv-x="481" d="M343 0V69Q322 32 288 10T216 -12Q175 -12 143 6T89 57T54 137T42 241Q42 298 54 344T88 424T143 476T216 495Q254 495 287 475T343 413V667H415V0H343ZM234 52Q269 52 299 75T343 130V352Q329 384 299 407T234 431Q204 431 182 416T146 376T124 315T117 241Q117 202 124 168T145 108T182 67T234 52Z"  />
<glyph unicode="e" horiz-adv-x="469" d="M250 -12Q202 -12 164 7T98 59T57 139T42 242Q42 294 55 340T94 421T156 475T239 495Q287 495 323 475T382 421T418 340T430 240V218H116Q117 182 127 151T154 97T197 61T256 48Q288 48 318 63T371 108L409 65Q380 29 340 9T250 -12ZM359 272Q359 299 352 328T331 381T294 420T237 435Q205 435 183 420T146 380T124 327T116 272H359Z"  />
<glyph unicode="f" horiz-adv-x="253" d="M83 0V420H19V483H83V541Q83 606 115 641T201 677Q237 677 263 662L245 604Q234 613 214 613Q185 613 170 594T155 541V483H236V420H155V0H83Z"  />
<glyph unicode="g" horiz-adv-x="481" d="M224 -196Q175 -196 136 -183T62 -135L95 -76Q144 -132 221 -132Q246 -132 268 -125T307 -102T333 -62T343 -3V77Q322 40 288 17T216 -6Q175 -6 143 11T89 62T54 141T42 244Q42 301 54 347T88 426T143 477T216 495Q254 495 287 475T343 413V483H415V-3Q415 -57 400 -94T358 -153T297 -186T224 -196ZM234 58Q269 58 299 82T343 138V352Q329 384 299 407T234 431Q204 431 182 417T146 377T124 317T117 244Q117 205 124 171T145 112T182 73T234 58Z"  />
<glyph unicode="h" horiz-adv-x="466" d="M328 0V345Q328 393 308 412T251 431Q215 431 185 407T137 354V0H66V667H137V414Q158 446 196 470T278 495Q340 495 370 464T400 365V0H328Z"  />
<glyph unicode="i" horiz-adv-x="203" d="M101 553Q81 553 67 567T52 602Q52 622 66 636T101 651Q122 651 136 637T150 602Q150 582 136 568T101 553ZM66 0V483H137V0H66Z"  />
<glyph unicode="j" horiz-adv-x="203" d="M101 553Q81 553 67 567T52 602Q52 622 66 636T101 651Q122 651 136 637T150 602Q150 582 136 568T101 553ZM16 -196Q-12 -196 -30 -188T-65 -162L-39 -107Q-31 -118 -19 -125T10 -132Q34 -132 50 -116T66 -59V483H137V-59Q137 -196 16 -196Z"  />
<glyph unicode="k" horiz-adv-x="439" d="M339 0L206 218L137 131V0H66V667H137V221L339 483H423L255 266L424 0H339Z"  />
<glyph unicode="l" horiz-adv-x="238" d="M162 -12Q112 -12 89 15T66 97V667H137V110Q137 83 146 68T177 52Q190 52 201 57T218 71L240 17Q227 4 209 -4T162 -12Z"  />
<glyph unicode="m" horiz-adv-x="693" d="M555 0V349Q555 431 488 431Q471 431 456 425T426 407T401 383T382 354V0H310V349Q310 388 294 409T243 431Q210 431 182 407T137 354V0H66V483H137V414Q144 427 158 441T189 468T227 487T270 495Q317 495 344 471T378 409Q387 425 401 440T434 468T472 487T515 495Q569 495 598 465T627 369V0H555Z"  />
<glyph unicode="n" horiz-adv-x="466" d="M328 0V343Q328 392 308 411T251 431Q215 431 185 407T137 354V0H66V483H137V414Q158 446 196 470T278 495Q400 495 400 364V0H328Z"  />
<glyph unicode="o" horiz-adv-x="478" d="M239 -12Q191 -12 154 8T92 64T55 145T42 242Q42 293 54 339T92 419T154 474T239 495Q288 495 324 475T386 420T423 339T436 242Q436 191 424 145T386 64T325 9T239 -12ZM239 52Q271 52 294 68T332 110T354 171T361 242Q361 278 354 312T332 373T294 415T239 431Q207 431 185 415T147 373T125 313T118 242Q118 205 125 171T147 111T184 68T239 52Z"  />
<glyph unicode="p" horiz-adv-x="479" d="M265 -12Q227 -12 194 8T137 70V-184H66V483H137V414Q158 451 192 473T265 495Q306 495 338 477T392 426T426 346T438 242Q438 185 427 139T393 59T338 7T265 -12ZM247 52Q277 52 298 67T334 107T356 168T363 242Q363 281 356 315T335 375T299 416T247 431Q212 431 182 408T137 353V132Q151 100 181 76T247 52Z"  />
<glyph unicode="q" horiz-adv-x="479" d="M232 52Q267 52 297 76T342 132V353Q328 385 298 408T232 431Q202 431 181 416T145 376T123 316T116 242Q116 203 123 168T144 108T180 67T232 52ZM214 -12Q173 -12 141 6T87 58T53 138T41 242Q41 299 52 345T86 425T141 477T214 495Q253 495 287 473T342 414V483H414V-184H342V70Q319 29 286 9T214 -12Z"  />
<glyph unicode="r" horiz-adv-x="291" d="M66 0V483H137V406Q160 444 194 468T274 493V420Q268 421 262 421T250 422Q233 422 217 416T185 398T157 373T137 343V0H66Z"  />
<glyph unicode="s" horiz-adv-x="388" d="M191 -12Q86 -12 27 57L63 107Q84 81 117 64T189 46Q232 46 257 67T282 124Q282 152 264 169T220 199T162 224T104 253T59 296T41 365Q41 392 51 415T82 457T130 485T195 495Q244 495 280 478T343 433L309 384Q291 408 262 422T196 437Q156 437 133 417T110 367Q110 341 128 326T173 298T231 273T289 243T334 197T352 126Q352 96 341 71T309 27T258 -1T191 -12Z"  />
<glyph unicode="t" horiz-adv-x="263" d="M176 -12Q80 -12 80 97V420H16V483H80V615H152V483H233V420H152V110Q152 83 161 68T191 52Q205 52 215 57T233 71L255 17Q241 4 223 -4T176 -12Z"  />
<glyph unicode="u" horiz-adv-x="465" d="M328 0V67Q306 35 270 12T188 -12Q66 -12 66 118V483H137V139Q137 90 158 71T215 52Q250 52 280 75T328 127V483H400V0H328Z"  />
<glyph unicode="v" horiz-adv-x="409" d="M165 0L6 483H84L205 86L326 483H403L244 0H165Z"  />
<glyph unicode="w" horiz-adv-x="639" d="M424 0L320 388L216 0H143L13 483H88L183 97L285 483H352L456 97L551 483H627L497 0H424Z"  />
<glyph unicode="x" horiz-adv-x="407" d="M315 0L204 194L92 0H12L160 246L20 483H100L204 299L307 483H387L247 246L395 0H315Z"  />
<glyph unicode="y" horiz-adv-x="465" d="M217 -196Q120 -196 61 -135L94 -76Q118 -105 149 -118T214 -132Q268 -132 298 -99T328 -3V75Q306 44 270 21T188 -3Q125 -3 96 28T66 126V483H137V147Q137 99 158 80T215 60Q250 60 280 83T328 136V483H400V-3Q400 -51 387 -87T349 -147T291 -183T217 -196Z"  />
<glyph unicode="z" horiz-adv-x="388" d="M43 0V56L253 420H43V483H341V428L131 63H345V0H43Z"  />
<glyph unicode="{" horiz-adv-x="231" d="M168 -190Q147 -190 127 -182T92 -158T68 -120T58 -71V150Q58 178 45 199T6 220V268Q32 268 45 289T58 338V559Q58 586 67 608T92 645T127 669T168 678H214V625H168Q146 625 130 607T114 559V332Q114 300 104 278T69 244Q94 233 104 211T114 156V-71Q114 -100 130 -118T168 -137H214V-190H168Z"  />
<glyph unicode="|" horiz-adv-x="194" d="M70 -20V687H124V-20H70Z"  />
<glyph unicode="}" horiz-adv-x="231" d="M17 -137H63Q85 -137 101 -119T117 -71V156Q117 188 127 210T162 244Q137 255 127 277T117 332V559Q117 588 101 606T63 625H17V678H63Q84 678 104 670T139 646T164 608T174 559V338Q174 310 187 289T226 268V220Q200 220 187 199T174 150V-71Q174 -98 165 -120T140 -157T104 -181T63 -190H17V-137Z"  />
<glyph unicode="~" horiz-adv-x="449" d="M422 662Q419 621 413 579T393 502T357 446T299 424Q271 424 254 438T226 473T208 519T194 565T177 601T151 615Q119 615 105 566T82 423L27 429Q30 470 37 512T57 589T93 644T151 666Q179 666 196 652T224 617T242 570T256 524T272 488T299 474Q331 474 345 523T368 667L422 662Z"  />
<glyph unicode="&#xA0;" horiz-adv-x="215" />
<glyph unicode="&#xA1;" horiz-adv-x="228" d="M84 298H144L159 -184H69L84 298ZM61 439Q61 461 76 477T114 493Q136 493 152 477T168 439Q168 418 152 402T114 386Q92 386 77 402T61 439Z"  />
<glyph unicode="&#xA2;" horiz-adv-x="407" d="M204 -8Q166 -1 136 21T85 76T53 151T42 242Q42 290 53 332T85 407T136 461T204 491V565H261V494Q303 491 332 474T381 431L342 382Q325 405 305 416T261 430V52Q308 57 342 101L381 52Q361 26 332 9T261 -11V-100H204V-8ZM117 242Q117 179 139 130T204 61V422Q161 403 139 354T117 242Z"  />
<glyph unicode="&#xA3;" horiz-adv-x="450" d="M25 322H111Q100 338 89 355T68 391T54 433T48 484Q48 523 62 558T103 620T163 661T239 677Q300 677 344 648T409 564L346 530Q335 562 310 586T245 610Q223 610 203 602T167 577T142 536T133 482Q133 453 139 431T155 391T176 356T199 322H312V270H222Q228 249 228 223Q228 181 207 145T157 85Q180 95 202 95Q222 95 237 89T267 77T295 64T326 58Q353 58 375 70T407 95L438 33Q421 13 390 0T321 -13Q292 -13 274 -6T240 9T210 24T172 31Q150 31 125 21T74 -7L46 52Q98 80 127 121T156 208Q156 225 152 240T142 270H25V322Z"  />
<glyph unicode="&#xA4;" horiz-adv-x="506" d="M253 222Q310 222 341 262T372 365Q372 395 364 421T341 467T304 498T253 509Q224 509 202 498T165 468T141 422T133 365Q133 334 141 308T164 263T202 233T253 222ZM19 168L88 239Q50 294 50 365Q50 436 88 489L19 560L64 603L131 534Q155 552 185 563T253 574Q289 574 320 563T375 534L442 603L487 560L418 489Q455 435 455 365Q455 330 445 298T417 240L487 168L442 125L374 194Q325 157 253 157Q181 157 132 194L64 125L19 168Z"  />
<glyph unicode="&#xA5;" horiz-adv-x="501" d="M211 0V123H22V174H211V282H22V333H183L5 667H94L251 359L408 667H496L317 333H478V282H290V174H478V123H290V0H211Z"  />
<glyph unicode="&#xA6;" horiz-adv-x="194" d="M70 -20V296H124V-20H70ZM70 371V687H124V371H70Z"  />
<glyph unicode="&#xA7;" horiz-adv-x="390" d="M352 307Q352 269 332 237T269 186Q309 163 330 133T352 58Q352 27 340 2T307 -42T256 -71T191 -81Q131 -81 94 -62T28 -12L63 36Q80 15 112 -5T188 -26Q230 -26 256 -3T282 55Q282 84 264 102T220 134T162 159T104 188T59 232T41 299Q41 344 69 375T141 418Q90 444 66 475T41 550Q41 577 52 600T83 641T130 667T192 677Q247 677 283 659T343 614L309 570Q285 599 257 611T196 623Q158 623 134 603T110 550Q110 523 128 506T173 477T231 452T289 422T334 377T352 307ZM284 297Q284 318 276 334T256 361T228 380T199 394Q145 382 127 358T108 308Q108 289 116 275T138 250T172 228T216 208Q284 240 284 297Z"  />
<glyph unicode="&#xA8;" horiz-adv-x="268" d="M266 604Q266 585 253 572T221 559Q202 559 189 572T176 604Q176 622 189 635T221 649Q240 649 253 636T266 604ZM92 604Q92 585 79 572T47 559Q28 559 15 572T2 604Q2 622 15 635T47 649Q65 649 78 636T92 604Z"  />
<glyph unicode="&#xA9;" horiz-adv-x="778" d="M734 334Q734 263 707 200T633 90T524 16T389 -11Q318 -11 255 16T145 90T71 200T44 334Q44 406 71 468T145 578T255 652T389 679Q461 679 523 652T633 578T707 469T734 334ZM704 334Q704 399 679 456T612 556T512 624T389 649Q324 649 267 624T167 557T99 457T74 334Q74 269 99 212T167 112T267 44T389 19Q454 19 511 44T611 112T679 212T704 334ZM537 187Q510 155 475 138T392 121Q348 121 310 137T244 182T200 250T183 335Q183 381 199 420T244 487T310 532T392 548Q439 548 475 531T537 483L512 458Q492 484 460 499T392 515Q357 515 326 502T271 466T233 409T219 335Q219 296 233 263T271 205T326 167T392 153Q428 153 460 169T512 212L537 187Z"  />
<glyph unicode="&#xAA;" horiz-adv-x="329" d="M221 326V360Q207 340 185 329T133 318Q93 318 64 345T34 422Q34 472 63 498T133 525Q162 525 184 515T221 485V538Q221 571 203 587T155 603Q134 603 113 594T72 562L48 600Q72 625 101 636T163 648Q214 648 245 622T277 536V326H221ZM153 356Q173 356 191 365T221 394V451Q210 471 192 480T153 489Q124 489 107 471T90 423Q90 394 107 375T153 356Z"  />
<glyph unicode="&#xAB;" horiz-adv-x="382" d="M285 63L160 243L285 420H352L227 243L352 63H285ZM155 63L30 243L155 420H222L97 243L222 63H155Z"  />
<glyph unicode="&#xAC;" horiz-adv-x="441" d="M409 212H356V405H29V456H409V212Z"  />
<glyph unicode="&#xAD;" horiz-adv-x="268" d="M30 210V274H238V210H30Z"  />
<glyph unicode="&#xAE;" horiz-adv-x="494" d="M459 465Q459 421 443 383T398 315T330 270T247 253Q203 253 165 269T97 315T52 382T35 465Q35 509 51 548T97 615T164 660T247 677Q291 677 330 661T397 616T442 548T459 465ZM430 465Q430 504 416 537T377 595T319 634T247 648Q209 648 176 634T117 595T78 537T64 465Q64 427 78 394T117 336T175 297T247 282Q285 282 318 296T376 335T415 393T430 465ZM305 343L242 439H198V343H166V586H265Q296 586 319 566T342 512Q342 492 335 478T317 456T296 444T280 440L345 343H305ZM309 512Q309 532 295 545T265 558H198V468H265Q281 468 295 480T309 512Z"  />
<glyph unicode="&#xAF;" horiz-adv-x="306" d="M0 591V637H306V591H0Z"  />
<glyph unicode="&#xB0;" horiz-adv-x="289" d="M266 555Q266 530 257 509T231 471T192 445T144 435Q119 435 97 444T59 470T33 508T23 555Q23 580 32 602T58 641T97 667T144 677Q169 677 191 668T230 642T256 603T266 555ZM219 555Q219 586 197 608T144 630Q113 630 92 608T70 555Q70 525 91 504T144 482Q175 482 197 503T219 555Z"  />
<glyph unicode="&#xB1;" horiz-adv-x="438" d="M247 318V134H192V318H29V369H192V546H247V369H409V318H247ZM29 22V73H409V22H29Z"  />
<glyph unicode="&#xB2;" horiz-adv-x="327" d="M41 421V465Q93 516 129 553T188 618T221 668T232 713Q232 746 212 762T163 779Q133 779 110 765T72 728L37 763Q59 795 92 811T165 827Q190 827 213 820T253 799T280 764T290 715Q290 689 279 663T247 609T193 546T119 469H292V421H41Z"  />
<glyph unicode="&#xB3;" horiz-adv-x="327" d="M293 530Q293 479 259 447T162 414Q115 414 82 433T31 480L67 515Q82 491 106 477T160 462Q198 462 217 481T236 533Q236 553 229 566T211 588T184 599T153 603Q142 603 133 603T120 602V650Q125 649 133 649T151 649Q186 649 208 664T230 714Q230 747 210 763T158 779Q130 779 109 767T70 732L36 764Q56 793 88 810T162 827Q217 827 252 800T287 720Q287 682 264 658T211 628Q225 626 239 619T266 599T285 569T293 530Z"  />
<glyph unicode="&#xB4;" horiz-adv-x="186" d="M51 556H0L114 700H186L51 556Z"  />
<glyph unicode="&#xB5;" horiz-adv-x="465" d="M66 -184V483H137V139Q137 90 158 70T215 50Q233 50 249 56T281 74T308 98T328 127V483H400V0H328V67Q306 35 270 12T188 -12Q173 -12 161 -10T137 -5V-184H66Z"  />
<glyph unicode="&#xB6;" horiz-adv-x="449" d="M333 -100V623H243V-100H199V323Q163 323 132 336T78 373T41 428T27 495Q27 531 40 562T77 616T132 653T199 667H376V-100H333Z"  />
<glyph unicode="&#xB7;" horiz-adv-x="229" d="M168 245Q168 223 152 207T114 191Q92 191 77 207T61 245Q61 266 76 282T114 298Q136 298 152 282T168 245Z"  />
<glyph unicode="&#xB8;" horiz-adv-x="185" d="M89 -191Q61 -191 38 -182T0 -161L18 -124Q50 -152 88 -152Q109 -152 125 -141T142 -110Q142 -94 134 -85T109 -75Q98 -75 90 -79T76 -91L44 -73L74 11H118L92 -55Q105 -45 125 -45Q151 -45 168 -63T185 -111Q185 -147 158 -169T89 -191Z"  />
<glyph unicode="&#xB9;" horiz-adv-x="225" d="M110 421V746L48 680L14 716L118 821H169V421H110Z"  />
<glyph unicode="&#xBA;" horiz-adv-x="348" d="M173 318Q140 318 115 331T71 367T44 420T35 483Q35 516 44 546T71 598T114 634T173 648Q207 648 233 635T276 599T303 546T312 483Q312 450 303 420T277 368T233 332T173 318ZM173 365Q215 365 235 400T255 483Q255 531 235 565T173 600Q132 600 113 566T93 483Q93 459 98 438T113 400T138 375T173 365Z"  />
<glyph unicode="&#xBB;" horiz-adv-x="382" d="M97 63H30L155 243L30 420H97L222 243L97 63ZM227 63H160L285 243L160 420H227L352 243L227 63Z"  />
<glyph unicode="&#xBC;" horiz-adv-x="673" d="M166 0H119L468 667H516L166 0ZM600 101V0H543V101H374V146L525 400H600V148H647V101H600ZM543 341L428 148H543V341ZM110 267V592L48 526L14 562L118 667H169V267H110Z"  />
<glyph unicode="&#xBD;" horiz-adv-x="708" d="M166 0H119L468 667H516L166 0ZM422 0V44Q474 95 510 132T569 197T602 247T613 292Q613 325 593 341T544 358Q514 358 491 344T453 307L418 342Q440 374 473 390T546 406Q571 406 594 399T634 378T661 343T671 294Q671 268 660 242T628 188T574 125T500 48H673V0H422ZM110 267V592L48 526L14 562L118 667H169V267H110Z"  />
<glyph unicode="&#xBE;" horiz-adv-x="746" d="M239 0H192L541 667H589L239 0ZM673 101V0H616V101H447V146L598 400H673V148H720V101H673ZM616 341L501 148H616V341ZM293 376Q293 325 259 293T162 260Q115 260 82 279T31 326L67 361Q82 337 106 323T160 308Q198 308 217 327T236 379Q236 399 229 412T211 434T184 445T153 449Q142 449 133 449T120 448V496Q125 495 133 495T151 495Q186 495 208 510T230 560Q230 593 210 609T158 625Q130 625 109 613T70 578L36 610Q56 639 88 656T162 673Q217 673 252 646T287 566Q287 528 264 504T211 474Q225 472 239 465T266 445T285 415T293 376Z"  />
<glyph unicode="&#xBF;" horiz-adv-x="333" d="M219 297Q252 264 252 214Q252 183 242 160T215 119T180 84T145 50T119 12T108 -36Q108 -53 114 -69T133 -98T163 -118T205 -126Q244 -126 270 -111T319 -68L360 -120Q330 -157 288 -177T194 -197Q156 -197 125 -186T73 -154T40 -106T28 -48Q28 -13 39 13T68 61T105 101T142 137T170 174T182 219Q182 233 176 247T159 270L219 297ZM196 493Q218 493 234 477T250 439Q250 418 234 402T196 386Q174 386 159 402T143 439Q143 461 158 477T196 493Z"  />
<glyph unicode="&#xC0;" horiz-adv-x="512" d="M264 728L129 872H202L315 728H264ZM418 0L375 151H137L94 0H8L209 667H304L504 0H418ZM256 579L154 222H358L256 579Z"  />
<glyph unicode="&#xC1;" horiz-adv-x="512" d="M250 728H199L313 872H385L250 728ZM418 0L375 151H137L94 0H8L209 667H304L504 0H418ZM256 579L154 222H358L256 579Z"  />
<glyph unicode="&#xC2;" horiz-adv-x="512" d="M328 728L256 833L187 728H141L221 872H291L374 728H328ZM418 0L375 151H137L94 0H8L209 667H304L504 0H418ZM256 579L154 222H358L256 579Z"  />
<glyph unicode="&#xC3;" horiz-adv-x="512" d="M307 726Q283 726 270 740T248 773T230 805T205 820Q188 820 176 799T164 732H122Q122 789 143 827T207 866Q231 866 244 852T266 819T285 787T309 772Q327 772 338 793T350 860H392Q392 803 371 765T307 726ZM418 0L375 151H137L94 0H8L209 667H304L504 0H418ZM256 579L154 222H358L256 579Z"  />
<glyph unicode="&#xC4;" horiz-adv-x="512" d="M389 773Q389 754 376 741T344 728Q325 728 312 741T299 773Q299 791 312 804T344 818Q363 818 376 805T389 773ZM215 773Q215 754 202 741T170 728Q151 728 138 741T125 773Q125 791 138 804T170 818Q188 818 201 805T215 773ZM418 0L375 151H137L94 0H8L209 667H304L504 0H418ZM256 579L154 222H358L256 579Z"  />
<glyph unicode="&#xC5;" horiz-adv-x="512" d="M257 693Q219 693 193 719T166 784Q166 822 192 848T257 874Q295 874 321 848T347 784Q347 746 321 720T257 693ZM257 731Q279 731 294 746T309 784Q309 806 294 821T257 837Q235 837 220 822T204 784Q204 761 219 746T257 731ZM418 0L375 151H137L94 0H8L209 667H304L504 0H418ZM256 579L154 222H358L256 579Z"  />
<glyph unicode="&#xC6;" horiz-adv-x="752" d="M361 0V151H166L97 0H11L328 667H704V596H440V377H697V306H440V71H704V0H361ZM361 579L195 222H361V579Z"  />
<glyph unicode="&#xC7;" horiz-adv-x="534" d="M301 -187Q273 -187 250 -178T212 -157L230 -120Q262 -148 300 -148Q321 -148 337 -137T354 -106Q354 -90 346 -81T321 -71Q310 -71 302 -75T288 -87L256 -69L277 -10Q223 -4 181 24T109 98T63 203T47 333Q47 408 65 471T117 580T199 652T307 678Q345 678 375 668T429 639T471 598T503 548L437 516Q417 558 385 582T307 607Q266 607 233 587T177 530T142 443T129 333Q129 274 141 224T177 137T233 80T307 59Q353 59 386 87T438 158L504 127Q490 100 473 76T434 33T383 3T319 -11L304 -51Q317 -41 337 -41Q363 -41 380 -59T397 -107Q397 -143 370 -165T301 -187Z"  />
<glyph unicode="&#xC8;" horiz-adv-x="462" d="M251 728L116 872H189L302 728H251ZM70 0V667H413V596H150V377H406V306H150V71H413V0H70Z"  />
<glyph unicode="&#xC9;" horiz-adv-x="462" d="M236 728H185L299 872H371L236 728ZM70 0V667H413V596H150V377H406V306H150V71H413V0H70Z"  />
<glyph unicode="&#xCA;" horiz-adv-x="462" d="M313 728L241 833L172 728H126L206 872H276L359 728H313ZM70 0V667H413V596H150V377H406V306H150V71H413V0H70Z"  />
<glyph unicode="&#xCB;" horiz-adv-x="462" d="M374 773Q374 754 361 741T329 728Q310 728 297 741T284 773Q284 791 297 804T329 818Q348 818 361 805T374 773ZM200 773Q200 754 187 741T155 728Q136 728 123 741T110 773Q110 791 123 804T155 818Q173 818 186 805T200 773ZM70 0V667H413V596H150V377H406V306H150V71H413V0H70Z"  />
<glyph unicode="&#xCC;" horiz-adv-x="220" d="M117 728L-18 872H55L168 728H117ZM70 0V667H150V0H70Z"  />
<glyph unicode="&#xCD;" horiz-adv-x="220" d="M104 728H53L167 872H239L104 728ZM70 0V667H150V0H70Z"  />
<glyph unicode="&#xCE;" horiz-adv-x="220" d="M181 728L109 833L40 728H-6L74 872H144L227 728H181ZM70 0V667H150V0H70Z"  />
<glyph unicode="&#xCF;" horiz-adv-x="220" d="M243 773Q243 754 230 741T198 728Q179 728 166 741T153 773Q153 791 166 804T198 818Q217 818 230 805T243 773ZM69 773Q69 754 56 741T24 728Q5 728 -8 741T-21 773Q-21 791 -8 804T24 818Q42 818 55 805T69 773ZM70 0V667H150V0H70Z"  />
<glyph unicode="&#xD0;" horiz-adv-x="589" d="M94 0V300H16V358H94V667H272Q337 667 387 642T472 571T524 465T542 333Q542 261 525 200T473 95T388 25T272 0H94ZM174 300V71H272Q318 71 353 91T412 146T447 229T459 333Q459 390 448 438T413 521T354 576T272 596H174V358H298V300H174Z"  />
<glyph unicode="&#xD1;" horiz-adv-x="573" d="M334 726Q310 726 297 740T275 773T257 805T232 820Q215 820 203 799T191 732H149Q149 789 170 827T234 866Q258 866 271 852T293 819T312 787T336 772Q354 772 365 793T377 860H419Q419 803 398 765T334 726ZM427 0L150 508V0H70V667H150L424 169V667H503V0H427Z"  />
<glyph unicode="&#xD2;" horiz-adv-x="601" d="M309 728L174 872H247L360 728H309ZM300 -12Q239 -12 192 15T113 88T64 198T47 333Q47 405 63 468T112 577T192 651T300 678Q361 678 408 651T488 578T537 468T554 333Q554 261 537 198T488 89T409 15T300 -12ZM300 59Q342 59 374 80T427 139T460 226T472 333Q472 391 461 441T428 528T374 586T300 607Q258 607 227 586T173 528T140 441T129 333Q129 276 140 226T173 139T226 81T300 59Z"  />
<glyph unicode="&#xD3;" horiz-adv-x="601" d="M294 728H243L357 872H429L294 728ZM300 -12Q239 -12 192 15T113 88T64 198T47 333Q47 405 63 468T112 577T192 651T300 678Q361 678 408 651T488 578T537 468T554 333Q554 261 537 198T488 89T409 15T300 -12ZM300 59Q342 59 374 80T427 139T460 226T472 333Q472 391 461 441T428 528T374 586T300 607Q258 607 227 586T173 528T140 441T129 333Q129 276 140 226T173 139T226 81T300 59Z"  />
<glyph unicode="&#xD4;" horiz-adv-x="601" d="M372 728L300 833L231 728H185L265 872H335L418 728H372ZM300 -12Q239 -12 192 15T113 88T64 198T47 333Q47 405 63 468T112 577T192 651T300 678Q361 678 408 651T488 578T537 468T554 333Q554 261 537 198T488 89T409 15T300 -12ZM300 59Q342 59 374 80T427 139T460 226T472 333Q472 391 461 441T428 528T374 586T300 607Q258 607 227 586T173 528T140 441T129 333Q129 276 140 226T173 139T226 81T300 59Z"  />
<glyph unicode="&#xD5;" horiz-adv-x="601" d="M351 726Q327 726 314 740T292 773T274 805T249 820Q232 820 220 799T208 732H166Q166 789 187 827T251 866Q275 866 288 852T310 819T329 787T353 772Q371 772 382 793T394 860H436Q436 803 415 765T351 726ZM300 -12Q239 -12 192 15T113 88T64 198T47 333Q47 405 63 468T112 577T192 651T300 678Q361 678 408 651T488 578T537 468T554 333Q554 261 537 198T488 89T409 15T300 -12ZM300 59Q342 59 374 80T427 139T460 226T472 333Q472 391 461 441T428 528T374 586T300 607Q258 607 227 586T173 528T140 441T129 333Q129 276 140 226T173 139T226 81T300 59Z"  />
<glyph unicode="&#xD6;" horiz-adv-x="601" d="M432 773Q432 754 419 741T387 728Q368 728 355 741T342 773Q342 791 355 804T387 818Q406 818 419 805T432 773ZM258 773Q258 754 245 741T213 728Q194 728 181 741T168 773Q168 791 181 804T213 818Q231 818 244 805T258 773ZM300 -12Q239 -12 192 15T113 88T64 198T47 333Q47 405 63 468T112 577T192 651T300 678Q361 678 408 651T488 578T537 468T554 333Q554 261 537 198T488 89T409 15T300 -12ZM300 59Q342 59 374 80T427 139T460 226T472 333Q472 391 461 441T428 528T374 586T300 607Q258 607 227 586T173 528T140 441T129 333Q129 276 140 226T173 139T226 81T300 59Z"  />
<glyph unicode="&#xD7;" horiz-adv-x="438" d="M219 298L92 170L55 206L183 334L55 462L92 498L219 370L347 498L383 462L255 334L383 206L347 170L219 298Z"  />
<glyph unicode="&#xD8;" horiz-adv-x="601" d="M300 -12Q260 -12 227 -1T165 32L147 0H88L126 70Q88 118 68 185T47 333Q47 405 63 468T112 577T192 651T300 678Q339 678 372 667T433 635L451 667H510L472 598Q512 550 533 482T554 333Q554 261 537 198T488 89T409 15T300 -12ZM300 59Q342 59 374 80T427 139T460 226T472 333Q472 389 462 437T431 521L202 100Q243 59 300 59ZM129 333Q129 279 138 231T168 147L396 567Q376 586 353 596T300 607Q258 607 227 586T173 528T140 441T129 333Z"  />
<glyph unicode="&#xD9;" horiz-adv-x="569" d="M293 728L158 872H231L344 728H293ZM285 -12Q184 -12 127 46T70 216V667H150V216Q150 138 185 99T285 59Q349 59 384 98T419 216V667H499V216Q499 105 443 47T285 -12Z"  />
<glyph unicode="&#xDA;" horiz-adv-x="569" d="M277 728H226L340 872H412L277 728ZM285 -12Q184 -12 127 46T70 216V667H150V216Q150 138 185 99T285 59Q349 59 384 98T419 216V667H499V216Q499 105 443 47T285 -12Z"  />
<glyph unicode="&#xDB;" horiz-adv-x="569" d="M358 728L286 833L217 728H171L251 872H321L404 728H358ZM285 -12Q184 -12 127 46T70 216V667H150V216Q150 138 185 99T285 59Q349 59 384 98T419 216V667H499V216Q499 105 443 47T285 -12Z"  />
<glyph unicode="&#xDC;" horiz-adv-x="569" d="M417 773Q417 754 404 741T372 728Q353 728 340 741T327 773Q327 791 340 804T372 818Q391 818 404 805T417 773ZM243 773Q243 754 230 741T198 728Q179 728 166 741T153 773Q153 791 166 804T198 818Q216 818 229 805T243 773ZM285 -12Q184 -12 127 46T70 216V667H150V216Q150 138 185 99T285 59Q349 59 384 98T419 216V667H499V216Q499 105 443 47T285 -12Z"  />
<glyph unicode="&#xDD;" horiz-adv-x="501" d="M247 728H196L310 872H382L247 728ZM211 0V282L5 667H94L251 359L408 667H496L290 282V0H211Z"  />
<glyph unicode="&#xDE;" horiz-adv-x="488" d="M70 0V667H150V547H273Q319 547 353 531T411 487T446 423T458 346Q458 305 446 269T411 206T354 163T273 147H150V0H70ZM265 218Q317 218 346 253T376 346Q376 403 347 440T265 477H150V218H265Z"  />
<glyph unicode="&#xDF;" horiz-adv-x="525" d="M508 127Q508 99 498 74T467 30T418 0T351 -12Q292 -12 257 7T194 57L228 108Q245 86 274 67T345 47Q387 47 411 69T436 125Q436 153 419 170T377 200T321 225T266 254T223 296T206 362Q206 399 225 422T267 464T310 501T329 545Q329 560 322 572T302 594T274 608T240 613Q199 613 171 587T142 508V0H70V508Q70 544 82 574T116 628T170 664T241 677Q274 677 303 668T353 643T388 603T401 552Q401 512 382 488T339 446T296 410T276 365Q276 339 293 324T336 296T392 273T448 243T491 198T508 127Z"  />
<glyph unicode="&#xE0;" horiz-adv-x="481" d="M251 556L116 700H189L302 556H251ZM343 0V69Q322 32 288 10T216 -12Q175 -12 143 6T89 57T54 137T42 241Q42 298 54 344T88 424T143 476T216 495Q254 495 287 475T343 413V483H415V0H343ZM234 52Q269 52 299 75T343 130V351Q329 383 299 407T234 431Q204 431 182 416T146 376T124 315T117 241Q117 202 124 168T145 108T182 67T234 52Z"  />
<glyph unicode="&#xE1;" horiz-adv-x="481" d="M237 556H186L300 700H372L237 556ZM343 0V69Q322 32 288 10T216 -12Q175 -12 143 6T89 57T54 137T42 241Q42 298 54 344T88 424T143 476T216 495Q254 495 287 475T343 413V483H415V0H343ZM234 52Q269 52 299 75T343 130V351Q329 383 299 407T234 431Q204 431 182 416T146 376T124 315T117 241Q117 202 124 168T145 108T182 67T234 52Z"  />
<glyph unicode="&#xE2;" horiz-adv-x="481" d="M315 556L243 661L174 556H128L208 700H278L361 556H315ZM343 0V69Q322 32 288 10T216 -12Q175 -12 143 6T89 57T54 137T42 241Q42 298 54 344T88 424T143 476T216 495Q254 495 287 475T343 413V483H415V0H343ZM234 52Q269 52 299 75T343 130V351Q329 383 299 407T234 431Q204 431 182 416T146 376T124 315T117 241Q117 202 124 168T145 108T182 67T234 52Z"  />
<glyph unicode="&#xE3;" horiz-adv-x="481" d="M293 554Q269 554 256 568T234 601T216 633T191 648Q174 648 162 627T150 560H108Q108 617 129 655T193 694Q217 694 230 680T252 647T271 615T295 600Q313 600 324 621T336 688H378Q378 631 357 593T293 554ZM343 0V69Q322 32 288 10T216 -12Q175 -12 143 6T89 57T54 137T42 241Q42 298 54 344T88 424T143 476T216 495Q254 495 287 475T343 413V483H415V0H343ZM234 52Q269 52 299 75T343 130V351Q329 383 299 407T234 431Q204 431 182 416T146 376T124 315T117 241Q117 202 124 168T145 108T182 67T234 52Z"  />
<glyph unicode="&#xE4;" horiz-adv-x="481" d="M375 604Q375 585 362 572T330 559Q311 559 298 572T285 604Q285 622 298 635T330 649Q349 649 362 636T375 604ZM201 604Q201 585 188 572T156 559Q137 559 124 572T111 604Q111 622 124 635T156 649Q174 649 187 636T201 604ZM343 0V69Q322 32 288 10T216 -12Q175 -12 143 6T89 57T54 137T42 241Q42 298 54 344T88 424T143 476T216 495Q254 495 287 475T343 413V483H415V0H343ZM234 52Q269 52 299 75T343 130V351Q329 383 299 407T234 431Q204 431 182 416T146 376T124 315T117 241Q117 202 124 168T145 108T182 67T234 52Z"  />
<glyph unicode="&#xE5;" horiz-adv-x="481" d="M243 555Q205 555 179 581T152 646Q152 684 178 710T243 736Q281 736 307 710T333 646Q333 608 307 582T243 555ZM243 593Q265 593 280 608T295 646Q295 668 280 683T243 699Q221 699 206 684T190 646Q190 623 205 608T243 593ZM343 0V69Q322 32 288 10T216 -12Q175 -12 143 6T89 57T54 137T42 241Q42 298 54 344T88 424T143 476T216 495Q254 495 287 475T343 413V483H415V0H343ZM234 52Q269 52 299 75T343 130V351Q329 383 299 407T234 431Q204 431 182 416T146 376T124 315T117 241Q117 202 124 168T145 108T182 67T234 52Z"  />
<glyph unicode="&#xE6;" horiz-adv-x="768" d="M343 0V69Q322 32 288 10T216 -12Q175 -12 143 6T89 57T54 137T42 241Q42 298 54 344T88 424T143 476T216 495Q254 495 287 475T343 413V483H415V397Q434 442 467 468T552 495Q597 495 630 475T685 421T718 340T729 240V218H415Q416 182 426 151T453 98T496 62T555 49Q587 49 617 64T670 109L708 64Q682 29 646 9T564 -12Q508 -12 472 15T415 90V0H343ZM234 52Q269 52 299 75T343 130V351Q329 383 299 407T234 431Q204 431 182 416T146 376T124 315T117 241Q117 202 124 168T145 108T182 67T234 52ZM658 272Q658 299 651 328T630 381T593 420T536 435Q505 435 483 420T446 382T424 331T415 277V272H658Z"  />
<glyph unicode="&#xE7;" horiz-adv-x="407" d="M242 -189Q214 -189 191 -180T153 -159L171 -122Q203 -150 241 -150Q262 -150 278 -139T295 -108Q295 -92 287 -83T262 -73Q251 -73 243 -77T229 -89L197 -71L218 -10Q177 -5 144 16T89 70T54 148T42 242Q42 296 56 342T96 422T159 475T243 495Q294 495 326 477T381 431L342 382Q322 408 300 419T249 431Q217 431 192 416T151 375T126 315T117 242Q117 203 125 169T150 108T192 67T249 52Q305 52 342 101L381 52Q361 26 332 9T261 -11L245 -53Q258 -43 278 -43Q304 -43 321 -61T338 -109Q338 -145 311 -167T242 -189Z"  />
<glyph unicode="&#xE8;" horiz-adv-x="469" d="M250 -12Q202 -12 164 7T98 59T57 139T42 242Q42 294 55 340T94 421T156 475T239 495Q287 495 323 475T382 421T418 340T430 240V218H116Q117 182 127 151T154 97T197 61T256 48Q288 48 318 63T371 108L409 65Q380 29 340 9T250 -12ZM359 272Q359 299 352 328T331 381T294 420T237 435Q205 435 183 420T146 380T124 327T116 272H359ZM247 556L112 700H185L298 556H247Z"  />
<glyph unicode="&#xE9;" horiz-adv-x="469" d="M250 -12Q202 -12 164 7T98 59T57 139T42 242Q42 294 55 340T94 421T156 475T239 495Q287 495 323 475T382 421T418 340T430 240V218H116Q117 182 127 151T154 97T197 61T256 48Q288 48 318 63T371 108L409 65Q380 29 340 9T250 -12ZM359 272Q359 299 352 328T331 381T294 420T237 435Q205 435 183 420T146 380T124 327T116 272H359ZM233 556H182L296 700H368L233 556Z"  />
<glyph unicode="&#xEA;" horiz-adv-x="469" d="M250 -12Q202 -12 164 7T98 59T57 139T42 242Q42 294 55 340T94 421T156 475T239 495Q287 495 323 475T382 421T418 340T430 240V218H116Q117 182 127 151T154 97T197 61T256 48Q288 48 318 63T371 108L409 65Q380 29 340 9T250 -12ZM359 272Q359 299 352 328T331 381T294 420T237 435Q205 435 183 420T146 380T124 327T116 272H359ZM310 556L238 661L169 556H123L203 700H273L356 556H310Z"  />
<glyph unicode="&#xEB;" horiz-adv-x="469" d="M250 -12Q202 -12 164 7T98 59T57 139T42 242Q42 294 55 340T94 421T156 475T239 495Q287 495 323 475T382 421T418 340T430 240V218H116Q117 182 127 151T154 97T197 61T256 48Q288 48 318 63T371 108L409 65Q380 29 340 9T250 -12ZM359 272Q359 299 352 328T331 381T294 420T237 435Q205 435 183 420T146 380T124 327T116 272H359ZM370 604Q370 585 357 572T325 559Q306 559 293 572T280 604Q280 622 293 635T325 649Q344 649 357 636T370 604ZM196 604Q196 585 183 572T151 559Q132 559 119 572T106 604Q106 622 119 635T151 649Q169 649 182 636T196 604Z"  />
<glyph unicode="&#xEC;" horiz-adv-x="203" d="M108 556L-27 700H46L159 556H108ZM66 0V483H137V0H66Z"  />
<glyph unicode="&#xED;" horiz-adv-x="203" d="M95 556H44L158 700H230L95 556ZM66 0V483H137V0H66Z"  />
<glyph unicode="&#xEE;" horiz-adv-x="203" d="M173 556L101 661L32 556H-14L66 700H136L219 556H173ZM66 0V483H137V0H66Z"  />
<glyph unicode="&#xEF;" horiz-adv-x="203" d="M234 604Q234 585 221 572T189 559Q170 559 157 572T144 604Q144 622 157 635T189 649Q208 649 221 636T234 604ZM60 604Q60 585 47 572T15 559Q-4 559 -17 572T-30 604Q-30 622 -17 635T15 649Q33 649 46 636T60 604ZM66 0V483H137V0H66Z"  />
<glyph unicode="&#xF0;" horiz-adv-x="478" d="M104 545L215 594Q201 609 186 622T156 650L208 695Q227 678 244 660T279 622L370 663L387 624L307 589Q365 516 400 432T436 251Q436 195 424 147T386 64T325 8T239 -12Q191 -12 154 7T93 61T55 139T42 235Q42 285 54 329T89 407T145 460T222 480Q298 480 343 405Q309 486 244 561L121 506L104 545ZM239 52Q271 52 294 67T332 108T354 166T361 234Q361 269 354 302T332 360T294 401T239 417Q207 417 185 402T147 361T125 302T118 234Q118 199 125 167T147 109T184 68T239 52Z"  />
<glyph unicode="&#xF1;" horiz-adv-x="466" d="M329 0V343Q329 392 309 411T252 431Q216 431 186 407T138 354V0H67V483H138V414Q159 446 197 470T279 495Q401 495 401 364V0H329ZM284 554Q260 554 247 568T225 601T207 633T182 648Q165 648 153 627T141 560H99Q99 617 120 655T184 694Q208 694 221 680T243 647T262 615T286 600Q304 600 315 621T327 688H369Q369 631 348 593T284 554Z"  />
<glyph unicode="&#xF2;" horiz-adv-x="478" d="M239 -12Q191 -12 154 8T92 64T55 145T42 242Q42 293 54 339T92 419T154 474T239 495Q288 495 324 475T386 420T423 339T436 242Q436 191 424 145T386 64T325 9T239 -12ZM239 52Q271 52 294 68T332 110T354 171T361 242Q361 278 354 312T332 373T294 415T239 431Q207 431 185 415T147 373T125 313T118 242Q118 205 125 171T147 111T184 68T239 52ZM247 556L112 700H185L298 556H247Z"  />
<glyph unicode="&#xF3;" horiz-adv-x="478" d="M239 -12Q191 -12 154 8T92 64T55 145T42 242Q42 293 54 339T92 419T154 474T239 495Q288 495 324 475T386 420T423 339T436 242Q436 191 424 145T386 64T325 9T239 -12ZM239 52Q271 52 294 68T332 110T354 171T361 242Q361 278 354 312T332 373T294 415T239 431Q207 431 185 415T147 373T125 313T118 242Q118 205 125 171T147 111T184 68T239 52ZM232 556H181L295 700H367L232 556Z"  />
<glyph unicode="&#xF4;" horiz-adv-x="478" d="M239 -12Q191 -12 154 8T92 64T55 145T42 242Q42 293 54 339T92 419T154 474T239 495Q288 495 324 475T386 420T423 339T436 242Q436 191 424 145T386 64T325 9T239 -12ZM239 52Q271 52 294 68T332 110T354 171T361 242Q361 278 354 312T332 373T294 415T239 431Q207 431 185 415T147 373T125 313T118 242Q118 205 125 171T147 111T184 68T239 52ZM311 556L239 661L170 556H124L204 700H274L357 556H311Z"  />
<glyph unicode="&#xF5;" horiz-adv-x="478" d="M239 -12Q191 -12 154 8T92 64T55 145T42 242Q42 293 54 339T92 419T154 474T239 495Q288 495 324 475T386 420T423 339T436 242Q436 191 424 145T386 64T325 9T239 -12ZM239 52Q271 52 294 68T332 110T354 171T361 242Q361 278 354 312T332 373T294 415T239 431Q207 431 185 415T147 373T125 313T118 242Q118 205 125 171T147 111T184 68T239 52ZM289 554Q265 554 252 568T230 601T212 633T187 648Q170 648 158 627T146 560H104Q104 617 125 655T189 694Q213 694 226 680T248 647T267 615T291 600Q309 600 320 621T332 688H374Q374 631 353 593T289 554Z"  />
<glyph unicode="&#xF6;" horiz-adv-x="478" d="M239 -12Q191 -12 154 8T92 64T55 145T42 242Q42 293 54 339T92 419T154 474T239 495Q288 495 324 475T386 420T423 339T436 242Q436 191 424 145T386 64T325 9T239 -12ZM239 52Q271 52 294 68T332 110T354 171T361 242Q361 278 354 312T332 373T294 415T239 431Q207 431 185 415T147 373T125 313T118 242Q118 205 125 171T147 111T184 68T239 52ZM372 604Q372 585 359 572T327 559Q308 559 295 572T282 604Q282 622 295 635T327 649Q346 649 359 636T372 604ZM198 604Q198 585 185 572T153 559Q134 559 121 572T108 604Q108 622 121 635T153 649Q171 649 184 636T198 604Z"  />
<glyph unicode="&#xF7;" horiz-adv-x="443" d="M267 503Q267 484 254 471T222 457Q203 457 190 470T177 503Q177 522 190 534T222 547Q241 547 254 535T267 503ZM29 312V363H414V312H29ZM267 168Q267 149 254 136T222 123Q203 123 190 136T177 168Q177 186 190 199T222 213Q241 213 254 200T267 168Z"  />
<glyph unicode="&#xF8;" horiz-adv-x="478" d="M55 0L94 60Q68 95 55 142T42 242Q42 293 54 339T92 419T154 474T239 495Q305 495 352 456L369 483H419L381 425Q408 390 422 343T436 242Q436 191 424 145T386 64T325 9T239 -12Q171 -12 124 29L105 0H55ZM239 52Q271 52 294 68T332 110T354 171T361 242Q361 274 355 304T338 359L162 88Q192 52 239 52ZM118 242Q118 211 122 182T138 128L314 398Q300 413 281 422T239 431Q207 431 185 415T147 373T125 313T118 242Z"  />
<glyph unicode="&#xF9;" horiz-adv-x="465" d="M328 0V67Q306 35 270 12T188 -12Q66 -12 66 118V483H137V139Q137 90 158 71T215 52Q250 52 280 75T328 127V483H400V0H328ZM241 556L106 700H179L292 556H241Z"  />
<glyph unicode="&#xFA;" horiz-adv-x="465" d="M328 0V67Q306 35 270 12T188 -12Q66 -12 66 118V483H137V139Q137 90 158 71T215 52Q250 52 280 75T328 127V483H400V0H328ZM227 556H176L290 700H362L227 556Z"  />
<glyph unicode="&#xFB;" horiz-adv-x="465" d="M328 0V67Q306 35 270 12T188 -12Q66 -12 66 118V483H137V139Q137 90 158 71T215 52Q250 52 280 75T328 127V483H400V0H328ZM304 556L232 661L163 556H117L197 700H267L350 556H304Z"  />
<glyph unicode="&#xFC;" horiz-adv-x="465" d="M328 0V67Q306 35 270 12T188 -12Q66 -12 66 118V483H137V139Q137 90 158 71T215 52Q250 52 280 75T328 127V483H400V0H328ZM367 604Q367 585 354 572T322 559Q303 559 290 572T277 604Q277 622 290 635T322 649Q341 649 354 636T367 604ZM193 604Q193 585 180 572T148 559Q129 559 116 572T103 604Q103 622 116 635T148 649Q166 649 179 636T193 604Z"  />
<glyph unicode="&#xFD;" horiz-adv-x="465" d="M225 556H174L288 700H360L225 556ZM217 -196Q120 -196 61 -135L94 -76Q118 -105 149 -118T214 -132Q268 -132 298 -99T328 -3V75Q306 44 270 21T188 -3Q125 -3 96 28T66 126V483H137V147Q137 99 158 80T215 60Q250 60 280 83T328 136V483H400V-3Q400 -51 387 -87T349 -147T291 -183T217 -196Z"  />
<glyph unicode="&#xFE;" horiz-adv-x="479" d="M265 -12Q227 -12 194 7T137 68V-184H66V667H137V416Q158 453 191 474T265 495Q306 495 338 477T392 426T426 346T438 242Q438 185 427 139T393 59T338 7T265 -12ZM247 52Q277 52 298 67T334 107T356 168T363 242Q363 281 356 315T335 375T299 416T247 431Q212 431 182 408T137 353V132Q151 100 181 76T247 52Z"  />
<glyph unicode="&#xFF;" horiz-adv-x="465" d="M363 604Q363 585 350 572T318 559Q299 559 286 572T273 604Q273 622 286 635T318 649Q337 649 350 636T363 604ZM189 604Q189 585 176 572T144 559Q125 559 112 572T99 604Q99 622 112 635T144 649Q162 649 175 636T189 604ZM217 -196Q120 -196 61 -135L94 -76Q118 -105 149 -118T214 -132Q268 -132 298 -99T328 -3V75Q306 44 270 21T188 -3Q125 -3 96 28T66 126V483H137V147Q137 99 158 80T215 60Q250 60 280 83T328 136V483H400V-3Q400 -51 387 -87T349 -147T291 -183T217 -196Z"  />
<glyph unicode="&#x152;" horiz-adv-x="852" d="M460 0V94Q431 37 385 13T291 -12Q232 -12 187 15T110 88T63 198T47 333Q47 406 63 468T110 577T186 650T291 677Q314 677 338 672T384 654T426 621T460 573V667H803V596H539V377H796V306H539V71H803V0H460ZM460 466Q440 535 398 570T302 606Q259 606 227 585T173 527T140 441T129 333Q129 276 140 226T172 139T226 81T302 59Q356 59 398 95T460 201V466Z"  />
<glyph unicode="&#x153;" horiz-adv-x="787" d="M435 218Q436 182 445 151T473 97T516 61T574 48Q606 48 636 63T689 108L728 65Q698 29 658 9T568 -12Q532 -12 504 -2T456 26T422 66T399 112Q390 89 377 67T345 28T299 -1T239 -12Q191 -12 154 8T92 64T55 145T42 242Q42 293 54 339T92 419T154 474T239 495Q273 495 299 484T344 456T377 417T398 373Q407 395 420 417T453 456T499 484T557 495Q605 495 641 475T700 420T736 339T748 239V218H435ZM677 272Q677 299 671 328T650 381T612 420T556 435Q524 435 501 420T464 380T442 327T434 272H677ZM361 242Q361 279 354 313T331 373T293 415T239 431Q208 431 185 415T147 373T125 313T118 242Q118 205 125 171T147 110T185 67T239 51Q270 51 293 67T331 109T353 170T361 242Z"  />
<glyph unicode="&#x160;" horiz-adv-x="466" d="M206 728L123 872H169L241 767L310 872H356L276 728H206ZM229 -12Q163 -12 114 11T29 72L73 133Q99 102 139 81T229 59Q260 59 283 68T321 92T343 128T351 169Q351 209 329 235T273 280T200 316T128 356T72 414T49 503Q49 541 63 573T103 628T164 665T241 678Q353 678 419 607L378 547Q350 578 315 592T239 607Q192 607 161 580T130 507Q130 472 152 449T208 408T281 371T353 328T409 267T432 174Q432 137 420 104T383 45T320 4T229 -12Z"  />
<glyph unicode="&#x161;" horiz-adv-x="388" d="M191 -12Q86 -12 27 57L63 107Q84 81 117 64T189 46Q232 46 257 67T282 124Q282 152 264 169T220 199T162 224T104 253T59 296T41 365Q41 392 51 415T82 457T130 485T195 495Q244 495 280 478T343 433L309 384Q291 408 262 422T196 437Q156 437 133 417T110 367Q110 341 128 326T173 298T231 273T289 243T334 197T352 126Q352 96 341 71T309 27T258 -1T191 -12ZM161 556L78 700H124L196 595L265 700H311L231 556H161Z"  />
<glyph unicode="&#x178;" horiz-adv-x="501" d="M386 773Q386 754 373 741T341 728Q322 728 309 741T296 773Q296 791 309 804T341 818Q360 818 373 805T386 773ZM212 773Q212 754 199 741T167 728Q148 728 135 741T122 773Q122 791 135 804T167 818Q185 818 198 805T212 773ZM211 0V282L5 667H94L251 359L408 667H496L290 282V0H211Z"  />
<glyph unicode="&#x17D;" horiz-adv-x="463" d="M198 728L115 872H161L233 767L302 872H348L268 728H198ZM40 0V68L321 596H40V667H416V601L134 71H423V0H40Z"  />
<glyph unicode="&#x17E;" horiz-adv-x="388" d="M43 0V56L253 420H43V483H341V428L131 63H345V0H43ZM156 556L73 700H119L191 595L260 700H306L226 556H156Z"  />
<glyph unicode="&#x192;" horiz-adv-x="398" d="M24 -161L116 255H58V320H130L180 547Q194 607 235 642T331 677Q354 677 373 671T410 647L377 588Q363 606 337 606Q307 606 287 587T258 532L211 320H326V255H197L104 -161H24Z"  />
<glyph unicode="&#x2C6;" horiz-adv-x="233" d="M187 556L115 661L46 556H0L80 700H150L233 556H187Z"  />
<glyph unicode="&#x2DC;" horiz-adv-x="270" d="M185 554Q161 554 148 568T126 601T108 633T83 648Q66 648 54 627T42 560H0Q0 617 21 655T85 694Q109 694 122 680T144 647T163 615T187 600Q205 600 216 621T228 688H270Q270 631 249 593T185 554Z"  />
<glyph unicode="&#x2013;" horiz-adv-x="527" d="M30 210V274H497V210H30Z"  />
<glyph unicode="&#x2014;" horiz-adv-x="737" d="M30 210V274H707V210H30Z"  />
<glyph unicode="&#x2018;" horiz-adv-x="229" d="M53 529Q53 574 75 613T132 677L168 648Q144 632 126 606T105 555Q106 555 110 556T117 557Q138 557 151 543T165 507Q165 486 150 471T113 455Q89 455 71 474T53 529Z"  />
<glyph unicode="&#x2019;" horiz-adv-x="229" d="M173 603Q173 557 150 518T93 454L57 484Q81 500 99 526T121 577Q117 575 108 575Q88 575 75 589T61 625Q61 646 75 661T113 677Q137 677 155 658T173 603Z"  />
<glyph unicode="&#x201A;" horiz-adv-x="229" d="M173 22Q173 -23 150 -62T93 -126L57 -97Q81 -80 99 -54T121 -4Q119 -4 116 -4T108 -5Q88 -5 75 9T61 44Q61 66 75 81T113 97Q137 97 155 78T173 22Z"  />
<glyph unicode="&#x201C;" horiz-adv-x="386" d="M56 529Q56 574 79 613T135 677L172 648Q148 632 130 606T108 555Q109 555 113 556T121 557Q141 557 154 543T168 507Q168 486 153 471T116 455Q92 455 74 474T56 529ZM213 529Q213 574 236 613T293 677L329 648Q305 632 287 606T266 555Q267 555 271 556T278 557Q298 557 311 543T325 507Q325 486 311 471T273 455Q249 455 231 474T213 529Z"  />
<glyph unicode="&#x201D;" horiz-adv-x="386" d="M330 603Q330 557 308 518T251 454L215 484Q239 500 257 526T278 577Q277 576 273 576T265 575Q245 575 232 589T218 625Q218 646 233 661T270 677Q294 677 312 658T330 603ZM173 603Q173 557 150 518T93 454L57 484Q81 500 99 526T121 577Q117 575 108 575Q88 575 75 589T61 625Q61 646 75 661T113 677Q137 677 155 658T173 603Z"  />
<glyph unicode="&#x201E;" horiz-adv-x="386" d="M173 22Q173 -23 150 -62T93 -126L57 -97Q81 -80 99 -54T121 -4Q119 -4 116 -4T108 -5Q88 -5 75 9T61 44Q61 66 75 81T113 97Q137 97 155 78T173 22ZM330 22Q330 -23 308 -62T251 -126L215 -97Q239 -80 257 -54T278 -4Q277 -4 273 -4T265 -5Q245 -5 232 9T218 44Q218 66 233 81T270 97Q294 97 312 78T330 22Z"  />
<glyph unicode="&#x2020;" horiz-adv-x="262" d="M150 536L154 327H107L112 536L23 532V574L112 571L107 677H154L150 571L239 574V532L150 536Z"  />
<glyph unicode="&#x2021;" horiz-adv-x="262" d="M239 532L150 536V322L239 326V284L150 287L154 180H107L111 287L23 284V326L111 322V536L23 532V574L111 571L107 677H154L150 571L239 574V532Z"  />
<glyph unicode="&#x2022;" horiz-adv-x="358" d="M287 242Q287 220 279 201T256 168T222 145T180 136Q158 136 139 144T105 167T82 201T73 242Q73 264 81 283T104 317T138 340T180 349Q202 349 221 341T255 318T278 284T287 242Z"  />
<glyph unicode="&#x2026;" horiz-adv-x="685" d="M168 44Q168 22 152 6T114 -10Q92 -10 77 6T61 44Q61 65 76 81T114 97Q136 97 152 81T168 44ZM396 44Q396 22 381 6T343 -10Q320 -10 305 6T289 44Q289 65 304 81T343 97Q365 97 380 81T396 44ZM625 44Q625 22 609 6T571 -10Q549 -10 534 6T518 44Q518 65 533 81T571 97Q593 97 609 81T625 44Z"  />
<glyph unicode="&#x2030;" horiz-adv-x="962" d="M311 512Q311 477 301 447T273 395T229 361T171 348Q139 348 113 360T69 395T40 447T30 512Q30 547 40 577T68 630T113 664T171 677Q203 677 229 665T273 630T301 578T311 512ZM175 0H128L478 667H526L175 0ZM621 151Q621 116 611 86T582 35T537 1T480 -12Q448 -12 422 0T378 34T349 86T339 151Q339 186 349 216T377 269T422 304T480 317Q511 317 537 305T582 270T611 217T621 151ZM255 512Q255 562 232 596T171 630Q133 630 110 596T86 512Q86 462 109 429T171 396Q209 396 232 429T255 512ZM565 151Q565 202 542 235T480 269Q441 269 418 236T395 151Q395 102 418 69T480 35Q519 35 542 68T565 151ZM932 151Q932 116 922 86T893 35T848 1T791 -12Q759 -12 734 0T689 34T660 86T650 151Q650 186 660 216T689 269T733 304T791 317Q822 317 848 305T893 270T922 217T932 151ZM876 151Q876 202 853 235T791 269Q752 269 729 236T706 151Q706 102 729 69T791 35Q830 35 853 68T876 151Z"  />
<glyph unicode="&#x2039;" horiz-adv-x="252" d="M155 63L30 243L155 420H222L97 243L222 63H155Z"  />
<glyph unicode="&#x203A;" horiz-adv-x="252" d="M97 63H30L155 243L30 420H97L222 243L97 63Z"  />
<glyph unicode="&#x20AC;" horiz-adv-x="550" d="M324 -12Q274 -12 232 6T158 57T104 136T72 238H24V288H65Q64 299 64 310T64 333Q64 345 64 356T66 380H24V431H72Q82 486 104 531T158 609T232 660T324 678Q362 678 392 668T446 639T488 598T520 548L454 516Q434 558 402 582T324 607Q260 607 216 559T155 431H367V380H148Q146 369 146 357T146 333Q146 321 146 310T148 288H367V238H155Q172 157 215 108T324 59Q370 59 403 87T455 158L521 127Q507 99 489 74T447 30T393 0T324 -12Z"  />
<glyph unicode="&#x2122;" horiz-adv-x="414" d="M351 447V629L286 447H278L213 629V447H185V667H228L282 509L336 667H379V447H351ZM97 641V447H69V641H17V667H149V641H97Z"  />


</font>
</defs>
</svg>
